<?xml version="1.0" standalone="no"?>
<!DOCTYPE svg PUBLIC "-//W3C//DTD SVG 20010904//EN"
 "http://www.w3.org/TR/2001/REC-SVG-20010904/DTD/svg10.dtd">
<svg version="1.0" xmlns="http://www.w3.org/2000/svg"
 width="310.000000pt" height="310.000000pt" viewBox="0 0 310.000000 310.000000"
 preserveAspectRatio="xMidYMid meet">
<metadata>
Created by potrace 1.14, written by Peter Selinger 2001-2017
</metadata>
<g transform="translate(0.000000,310.000000) scale(0.100000,-0.100000)"
fill="#000000" stroke="none">
<path d="M0 1550 l0 -1550 1550 0 1550 0 0 1550 0 1550 -1550 0 -1550 0 0
-1550z m1858 904 c265 -54 425 -192 477 -410 18 -76 19 -234 1 -301 -38 -144
-143 -263 -273 -313 l-45 -17 55 -27 c107 -52 186 -166 206 -296 13 -85 26
-400 17 -434 l-6 -26 -243 2 -242 3 -7 190 c-8 223 -24 300 -72 349 -58 57
-71 59 -541 65 l-430 6 -3 170 c-1 94 0 180 3 192 l5 22 458 3 c326 3 467 7
493 16 100 34 142 95 142 206 0 114 -48 178 -167 219 -19 7 -198 13 -481 16
l-450 6 -3 175 c-1 96 0 180 2 187 4 10 109 13 516 13 427 0 523 -3 588 -16z
m-584 -1533 c47 -6 64 -13 83 -35 22 -26 23 -34 21 -139 l-3 -112 -307 -3
-308 -2 -5 22 c-3 13 -4 77 -3 143 l3 120 70 6 c104 8 381 8 449 0z"/>
</g>
</svg>
