<svg width="172" height="152" viewBox="0 0 172 152" fill="none" xmlns="http://www.w3.org/2000/svg">
<circle cx="86" cy="72" r="64" fill="#EAECF0"/>
<circle cx="20" cy="28" r="6" fill="#F2F4F7"/>
<circle cx="17" cy="120" r="8" fill="#F2F4F7"/>
<circle cx="160" cy="44" r="8" fill="#F2F4F7"/>
<circle cx="149" cy="17" r="5" fill="#F2F4F7"/>
<g filter="url(#filter0_dd_5646_36196)">
<path d="M86 44.6493L91.6161 42.297L86.0007 44.6891V111.664L137.748 89.9791V22.9748L138 22.8691L137.748 22.7573V22.6448L137.618 22.6999L86.4084 0L34 22.3246L34.2481 22.4312L34 89.1634L86 111.624L86 44.6493Z" fill="#F9FAFB"/>
<path d="M86 44.6492V111.624L34 89.1632L34.2481 22.431L86 44.6492Z" fill="url(#paint0_linear_5646_36196)"/>
<path d="M86.0008 44.6891V111.664L137.748 89.9791V22.6448L86.0008 44.6891Z" fill="url(#paint1_linear_5646_36196)"/>
<path d="M86 44.6493L138 22.8691L86.4084 0L34 22.3246L86 44.6493Z" fill="#F2F4F7"/>
<path d="M53.6021 13.9748L105.404 36.5221L105.874 52.953L120.368 46.9727L119.93 30.438L66.5954 8.43994L53.6021 13.9748Z" fill="#EAECF0"/>
</g>
<defs>
<filter id="filter0_dd_5646_36196" x="14" y="0" width="144" height="151.664" filterUnits="userSpaceOnUse" color-interpolation-filters="sRGB">
<feFlood flood-opacity="0" result="BackgroundImageFix"/>
<feColorMatrix in="SourceAlpha" type="matrix" values="0 0 0 0 0 0 0 0 0 0 0 0 0 0 0 0 0 0 127 0" result="hardAlpha"/>
<feMorphology radius="4" operator="erode" in="SourceAlpha" result="effect1_dropShadow_5646_36196"/>
<feOffset dy="8"/>
<feGaussianBlur stdDeviation="4"/>
<feColorMatrix type="matrix" values="0 0 0 0 0.0627451 0 0 0 0 0.0941176 0 0 0 0 0.156863 0 0 0 0.03 0"/>
<feBlend mode="normal" in2="BackgroundImageFix" result="effect1_dropShadow_5646_36196"/>
<feColorMatrix in="SourceAlpha" type="matrix" values="0 0 0 0 0 0 0 0 0 0 0 0 0 0 0 0 0 0 127 0" result="hardAlpha"/>
<feMorphology radius="4" operator="erode" in="SourceAlpha" result="effect2_dropShadow_5646_36196"/>
<feOffset dy="20"/>
<feGaussianBlur stdDeviation="12"/>
<feColorMatrix type="matrix" values="0 0 0 0 0.0627451 0 0 0 0 0.0941176 0 0 0 0 0.156863 0 0 0 0.08 0"/>
<feBlend mode="normal" in2="effect1_dropShadow_5646_36196" result="effect2_dropShadow_5646_36196"/>
<feBlend mode="normal" in="SourceGraphic" in2="effect2_dropShadow_5646_36196" result="shape"/>
</filter>
<linearGradient id="paint0_linear_5646_36196" x1="34" y1="89.4999" x2="54.5363" y2="33.8822" gradientUnits="userSpaceOnUse">
<stop stop-color="#DEE1E8"/>
<stop offset="1" stop-color="#EFF1F5"/>
</linearGradient>
<linearGradient id="paint1_linear_5646_36196" x1="86.0001" y1="46" x2="144.635" y2="57.6737" gradientUnits="userSpaceOnUse">
<stop stop-color="#E4E7EC"/>
<stop offset="1" stop-color="#F2F4F7"/>
</linearGradient>
</defs>
</svg>
