<svg width="46" height="46" viewBox="0 0 46 46" fill="none" xmlns="http://www.w3.org/2000/svg">
    <rect x="3" y="3" width="40" height="40" rx="20" fill="#FDEAD7" />
    <rect x="3" y="3" width="40" height="40" rx="20" stroke="#FEF6EE" stroke-width="6" />
    <path
        d="M19.6667 26.3333L23.0001 23M23.0001 23L26.3334 26.3333M23.0001 23V30.5M29.6667 26.9524C30.6847 26.1117 31.3334 24.8399 31.3334 23.4167C31.3334 20.8854 29.2814 18.8333 26.7501 18.8333C26.568 18.8333 26.3976 18.7383 26.3052 18.5814C25.2185 16.7374 23.2121 15.5 20.9167 15.5C17.465 15.5 14.6667 18.2982 14.6667 21.75C14.6667 23.4718 15.363 25.0309 16.4892 26.1613"
        stroke="#EF6820" stroke-width="1.66667" stroke-linecap="round" stroke-linejoin="round" />
</svg>