<svg width="61" height="32" viewBox="0 0 61 32" fill="none" xmlns="http://www.w3.org/2000/svg">
<path d="M12.6464 15.4013L8.98113 15.6262C8.91827 15.312 8.78265 15.0308 8.57755 14.7761C8.37246 14.5214 8.1012 14.3196 7.76379 14.1641C7.42969 14.0119 7.02943 13.9325 6.56631 13.9325C5.94441 13.9325 5.42175 14.0616 4.99833 14.3229C4.57491 14.5842 4.3599 14.9282 4.3599 15.3616C4.3599 15.7056 4.49883 15.9967 4.77339 16.2349C5.04796 16.4731 5.52099 16.6649 6.19251 16.8072L8.8058 17.3331C10.2084 17.6209 11.2537 18.084 11.9451 18.7225C12.6331 19.3609 12.9771 20.2011 12.9771 21.2398C12.9771 22.1859 12.6993 23.0162 12.1468 23.7307C11.5911 24.4453 10.8336 25.001 9.87097 25.398C8.90835 25.7949 7.80349 25.9934 6.54977 25.9934C4.63777 25.9934 3.11941 25.5931 1.98809 24.7959C0.856764 23.9987 0.19517 22.9071 0 21.5309L3.93648 21.3258C4.05557 21.908 4.34336 22.3513 4.79986 22.6557C5.25636 22.96 5.84187 23.1121 6.55639 23.1121C7.27091 23.1121 7.82334 22.9765 8.25337 22.702C8.68341 22.4307 8.90174 22.0768 8.90504 21.6434C8.89843 21.2795 8.74626 20.9818 8.44524 20.747C8.14421 20.5121 7.68109 20.3335 7.05589 20.2078L4.55507 19.7083C3.14587 19.4271 2.09725 18.9375 1.4125 18.2428C0.727751 17.5482 0.383725 16.6616 0.383725 15.5832C0.383725 14.657 0.635128 13.8565 1.14125 13.1883C1.64406 12.5167 2.35527 12.0007 3.27489 11.6368C4.19119 11.2729 5.26959 11.091 6.50346 11.091C8.32615 11.091 9.7618 11.478 10.8137 12.2455C11.8624 13.0162 12.4743 14.0649 12.6497 15.3947L12.6464 15.4013Z" fill="#252422"/>
<path d="M18.9745 17.3728V25.7188H14.9718V6.47308H18.862V13.83H19.0307C19.3549 12.9765 19.8842 12.3083 20.6086 11.8221C21.3364 11.3358 22.2461 11.0943 23.3443 11.0943C24.3466 11.0943 25.2232 11.3126 25.9708 11.746C26.7184 12.1826 27.3006 12.8045 27.7174 13.615C28.1342 14.4254 28.3393 15.3947 28.3327 16.5227V25.7122H24.3301V17.2372C24.3367 16.3474 24.1118 15.656 23.6586 15.1598C23.2054 14.6636 22.5702 14.4188 21.7565 14.4188C21.2107 14.4188 20.731 14.5346 20.3142 14.7662C19.8974 14.9977 19.5732 15.3351 19.3384 15.7751C19.1035 16.215 18.9844 16.7476 18.9778 17.3695L18.9745 17.3728Z" fill="#252422"/>
<path d="M37.5421 26C36.0568 26 34.7799 25.699 33.7115 25.0936C32.643 24.4882 31.8226 23.6315 31.2437 22.52C30.6681 21.4085 30.3803 20.092 30.3803 18.567C30.3803 17.042 30.6681 15.7784 31.2437 14.657C31.8193 13.5356 32.6331 12.6623 33.6817 12.0338C34.7303 11.4086 35.9642 11.0943 37.38 11.0943C38.3327 11.0943 39.2192 11.2465 40.0429 11.5508C40.8666 11.8551 41.5877 12.3116 42.203 12.917C42.8216 13.5257 43.3012 14.2865 43.6453 15.2061C43.9893 16.1257 44.1613 17.1975 44.1613 18.4247V19.523H31.9715V17.042H40.3902C40.3902 16.4664 40.2645 15.9537 40.0131 15.5104C39.7617 15.0672 39.4177 14.7165 38.9744 14.4618C38.5345 14.2071 38.0217 14.0814 37.4362 14.0814C36.8507 14.0814 36.2917 14.2203 35.8252 14.4982C35.3588 14.7761 34.9949 15.1499 34.7303 15.6163C34.4657 16.0827 34.3334 16.6021 34.3267 17.171V19.5296C34.3267 20.2441 34.4591 20.8594 34.727 21.3821C34.9916 21.9014 35.3721 22.3017 35.8583 22.5862C36.3479 22.8673 36.9268 23.0096 37.5983 23.0096C38.0416 23.0096 38.4518 22.9467 38.819 22.821C39.1895 22.6953 39.5037 22.5068 39.7683 22.2587C40.033 22.0073 40.2315 21.6996 40.3704 21.3391H44.072C43.8835 22.2322 43.4997 23.2478 42.9208 23.9094C42.3419 24.5709 41.5943 25.0837 40.6846 25.4509C39.7717 25.8181 38.723 26 37.5322 26H37.5421Z" fill="#252422"/>
<path d="M50.2546 6.47308V25.7188H46.252V6.47308H50.2546Z" fill="#252422"/>
<path d="M59.6889 11.2829V14.2898H52.9109V11.2829H59.6889ZM52.8183 25.7188V10.2409C52.8183 9.19554 53.0234 8.32554 53.4336 7.63749C53.8437 6.94943 54.4061 6.43008 55.1206 6.08605C55.8351 5.74202 56.6456 5.57001 57.5553 5.57001C58.1706 5.57001 58.7329 5.61632 59.2423 5.71225C59.7518 5.80818 60.1322 5.89088 60.3836 5.96696L59.6691 8.9739C59.5136 8.92428 59.3184 8.87797 59.0902 8.83166C58.8619 8.78866 58.6271 8.7655 58.3889 8.7655C57.8001 8.7655 57.3899 8.90113 57.1583 9.17569C56.9268 9.45025 56.811 9.82736 56.811 10.3169V25.7188H52.8183Z" fill="#252422"/>
</svg>
